<?xml version="1.0" encoding="utf-8"?>
<!-- Generator: Adobe Illustrator 21.0.0, SVG Export Plug-In . SVG Version: 6.00 Build 0)  -->
<svg version="1.1" id="Layer_1" xmlns="http://www.w3.org/2000/svg" xmlns:xlink="http://www.w3.org/1999/xlink" x="0px" y="0px"
	 viewBox="0 0 292.5 292.5" style="enable-background:new 0 0 292.5 292.5;" xml:space="preserve">
<style type="text/css">
	.st0{fill:#FFFFFF;}
</style>
<g>
	<path class="st0" d="M244.3,0h-196c-16.5,0-30,13.5-30,30.1v197.8c0,16.7,13.5,30.1,30,30.1h165.9l-7.8-27.1l18.7,17.4l17.7,16.4
		l31.5,27.8V30.1C274.2,13.4,260.8,0,244.3,0z M187.8,191c0,0-5.3-6.3-9.7-11.8c19.2-5.4,26.5-17.4,26.5-17.4
		c-6,3.9-11.7,6.7-16.8,8.6c-7.3,3.1-14.3,5.1-21.2,6.3c-14,2.6-26.9,1.9-37.9-0.1c-8.3-1.6-15.5-3.9-21.5-6.3
		c-3.4-1.3-7-2.9-10.7-5c-0.4-0.3-0.9-0.4-1.3-0.7c-0.3-0.1-0.4-0.3-0.6-0.4c-2.6-1.5-4.1-2.5-4.1-2.5s7,11.7,25.6,17.3
		c-4.4,5.6-9.8,12.1-9.8,12.1c-32.3-1-44.6-22.2-44.6-22.2c0-47.1,21.1-85.3,21.1-85.3c21.1-15.8,41.1-15.4,41.1-15.4l1.5,1.8
		C99,77.5,86.9,89.1,86.9,89.1s3.2-1.8,8.6-4.2c15.7-6.9,28.1-8.8,33.2-9.2c0.9-0.1,1.6-0.3,2.5-0.3c8.9-1.2,19-1.5,29.5-0.3
		c13.9,1.6,28.8,5.7,44,14c0,0-11.6-11-36.4-18.6l2-2.3c0,0,20-0.4,41.1,15.4c0,0,21.1,38.2,21.1,85.3
		C232.6,168.8,220.1,190,187.8,191z M119.8,122.7c-8.3,0-14.9,7.3-14.9,16.2c0,8.9,6.7,16.2,14.9,16.2c8.3,0,14.9-7.3,14.9-16.2
		C134.8,130,128.1,122.7,119.8,122.7 M173.2,122.7c-8.3,0-14.9,7.3-14.9,16.2c0,8.9,6.7,16.2,14.9,16.2c8.3,0,14.9-7.3,14.9-16.2
		C188.1,130,181.5,122.7,173.2,122.7"/>
</g>
</svg>
