<?xml version="1.0" encoding="utf-8"?>
<!-- Generator: Adobe Illustrator 21.0.0, SVG Export Plug-In . SVG Version: 6.00 Build 0)  -->
<svg version="1.1" id="Layer_1" xmlns="http://www.w3.org/2000/svg" xmlns:xlink="http://www.w3.org/1999/xlink" x="0px" y="0px"
	 viewBox="0 0 512 512" style="enable-background:new 0 0 512 512;" xml:space="preserve">
<style type="text/css">
	.st0{fill:#FFFFFF;}
</style>
<path class="st0" d="M499.7,135.3c-8.2-20.8-22.3-31.2-43.2-40.3c-20.4-9.1-109.9-14.5-200.3-15c-90.4,0.5-180.4,5.9-200.8,15
	c-20.9,9-35,19.4-43.1,40.3C4.1,155.7,0,205.9,0,256.2s4.1,100.1,12.2,120.6c8.2,20.9,22.3,31.3,43.2,40.8
	c20.5,9.1,110.4,14,200.8,14.5c90.4-0.5,179.9-5.4,200.3-14.5c20.9-9.6,35-20,43.2-40.8c8.2-20.4,12.3-70.2,12.3-120.5
	S507.9,155.7,499.7,135.3z M192.2,351.8V144.3l176.7,111.9L192.2,351.8z"/>
</svg>
